<svg width="16" height="16" viewBox="0 0 16 16" fill="none" xmlns="http://www.w3.org/2000/svg">
<g id="calendar-text-outline">
<path id="Vector" d="M12.6667 2H12V0.666664H10.6667V2H5.33333V0.666664H4V2H3.33333C2.6 2 2 2.6 2 3.33333V12.6667C2 13.4067 2.6 14 3.33333 14H12.6667C13.4067 14 14 13.4067 14 12.6667V3.33333C14 2.6 13.4067 2 12.6667 2ZM12.6667 12.6667H3.33333V6H12.6667V12.6667ZM3.33333 4.66666V3.33333H12.6667V4.66666H3.33333ZM4.66667 7.33333H11.3333V8.66666H4.66667V7.33333ZM4.66667 10H9.33333V11.3333H4.66667V10Z" fill="white"/>
</g>
</svg>
