<svg width="16" height="16" viewBox="0 0 16 16" fill="none" xmlns="http://www.w3.org/2000/svg">
<g id="carbon:search-locate">
<path id="Vector" d="M15 14.293L12.6555 11.949C13.2821 11.1426 13.5777 10.1277 13.4822 9.1109C13.3867 8.09415 12.9072 7.15203 12.1415 6.47638C11.3757 5.80073 10.3812 5.44235 9.36049 5.47423C8.33976 5.5061 7.36956 5.92583 6.64745 6.64795C5.92533 7.37006 5.5056 8.34026 5.47373 9.36099C5.44185 10.3817 5.80023 11.3762 6.47588 12.142C7.15153 12.9077 8.09365 13.3872 9.1104 13.4827C10.1272 13.5782 11.1421 13.2826 11.9485 12.656L14.293 15L15 14.293ZM9.5 12.5C8.90666 12.5 8.32664 12.3241 7.83329 11.9944C7.33994 11.6648 6.95542 11.1962 6.72836 10.6481C6.5013 10.0999 6.44189 9.49667 6.55764 8.91473C6.6734 8.33279 6.95912 7.79824 7.37868 7.37868C7.79824 6.95912 8.33279 6.6734 8.91473 6.55764C9.49667 6.44189 10.0999 6.5013 10.6481 6.72836C11.1962 6.95542 11.6648 7.33994 11.9944 7.83329C12.3241 8.32664 12.5 8.90666 12.5 9.5C12.4991 10.2954 12.1827 11.0579 11.6203 11.6203C11.0579 12.1827 10.2954 12.4991 9.5 12.5ZM1 6H5V7H1V6ZM1 1H9V2H1V1ZM1 3.5H9V4.5H1V3.5Z" fill="#00164F"/>
</g>
</svg>
