<svg width="176" height="136" viewBox="0 0 176 136" fill="none" xmlns="http://www.w3.org/2000/svg">
<rect width="176" height="136" fill="#5098FF"/>
<path fill-rule="evenodd" clip-rule="evenodd" d="M92.4661 27.2273C94.0078 25.4177 95.0513 23.2 94.8769 20.7149C94.3745 13.5549 84.4075 15.13 82.4688 18.7438C80.53 22.3576 80.7604 31.5242 83.2661 32.17C84.2653 32.4276 86.3941 31.7967 88.5606 30.4908L87.2007 40.1116H95.2305L92.4661 27.2273Z" fill="#B28B67"/>
<path fill-rule="evenodd" clip-rule="evenodd" d="M78.9115 13.7341C79.0778 13.1496 79.525 12.6492 80.1278 12.5007C80.2739 12.4647 80.4249 12.4502 80.5753 12.4562C80.6292 12.4584 80.6444 12.4739 80.6696 12.4362C80.6883 12.4082 80.6887 12.3399 80.6964 12.307C80.7204 12.2048 80.7503 12.1039 80.7873 12.0055C80.9134 11.6702 81.1253 11.3734 81.3808 11.1234C81.8587 10.6556 82.5044 10.3328 83.1753 10.2744C83.5424 10.2425 83.9069 10.3021 84.254 10.4216C84.4337 10.4834 84.608 10.5604 84.7777 10.6455C84.8288 10.6711 84.9946 10.7966 85.0459 10.7885C85.1025 10.7795 85.2164 10.6388 85.2624 10.6034C85.8317 10.1667 86.5346 9.99498 87.2436 10.0001C88.0439 10.0061 88.8146 10.0461 89.482 10.534C89.6233 10.6373 89.7579 10.7504 89.886 10.8694C89.9535 10.9321 90.0188 10.9972 90.0812 11.0649C90.1188 11.1058 90.1554 11.1476 90.1906 11.1905C90.2504 11.2633 90.2408 11.2872 90.3246 11.2364C90.6458 11.0413 91.018 10.95 91.3929 10.9961C91.6156 11.0234 91.8322 11.0903 92.0379 11.1783C92.1079 11.2082 92.27 11.3277 92.3446 11.3288C92.4187 11.33 92.5785 11.2192 92.6547 11.1911C93.0667 11.039 93.5107 11.0015 93.9437 11.0718C94.3903 11.1443 94.829 11.3225 95.2074 11.5687C95.3895 11.6872 95.5483 11.8184 95.6758 11.9946C95.7309 12.0706 95.7807 12.151 95.8431 12.2216C95.8796 12.2628 95.952 12.3052 95.9716 12.3575C95.9599 12.3262 96.46 12.1333 96.5072 12.121C96.7587 12.0553 97.0148 12.0687 97.261 12.1497C97.724 12.3021 98.1222 12.6438 98.4495 12.9941C98.6176 13.1741 98.7646 13.373 98.8895 13.5849C98.9493 13.6864 99.0041 13.7908 99.0541 13.8974C99.0784 13.9491 99.0945 14.0137 99.1264 14.0603C99.1676 14.1202 99.1953 14.1214 99.2699 14.1475C99.6489 14.2803 99.9943 14.505 100.257 14.8086C100.523 15.1158 100.696 15.4941 100.768 15.8925C100.773 15.9159 100.775 16.0132 100.789 16.0259C100.808 16.0434 100.884 16.0356 100.913 16.039C101.013 16.0507 101.112 16.0682 101.21 16.0913C101.39 16.134 101.565 16.1968 101.731 16.2789C102.378 16.5991 102.841 17.1993 103.068 17.8746C103.305 18.5834 103.301 19.3954 103.017 20.091C102.971 20.2033 102.917 20.3124 102.852 20.4155C102.813 20.4789 102.8 20.479 102.826 20.5455C102.854 20.6194 102.907 20.6912 102.94 20.7634C103.051 20.9991 103.128 21.2491 103.177 21.5044C103.257 21.9232 103.296 22.3633 103.217 22.7853C103.181 22.9813 103.117 23.1728 103.02 23.3473C102.97 23.4363 102.912 23.5207 102.846 23.5988C102.812 23.6393 102.776 23.678 102.738 23.7151C102.717 23.7363 102.688 23.7549 102.67 23.7785C102.625 23.8362 102.615 23.7888 102.639 23.8735C102.671 23.992 102.744 24.1088 102.789 24.2241C102.836 24.3429 102.877 24.4633 102.916 24.5849C102.993 24.8311 103.059 25.0818 103.1 25.3368C103.179 25.8263 103.165 26.348 102.933 26.7973C102.834 26.9895 102.692 27.158 102.52 27.2892C102.436 27.3534 102.344 27.4087 102.248 27.4541C102.199 27.4774 102.136 27.4875 102.114 27.5351C102.09 27.5863 102.126 27.6879 102.134 27.7452C102.205 28.2431 102.241 28.7659 102.093 29.2539C101.956 29.7033 101.656 30.1001 101.266 30.3628C100.51 30.8725 99.4914 30.8437 98.697 30.4357C98.49 30.3294 98.2963 30.1973 98.1235 30.0416C97.6834 30.6339 96.7779 30.6152 96.1348 30.4464C95.3335 30.2361 94.6906 29.679 94.3202 28.947C93.8137 29.5636 92.7507 29.3635 92.3994 28.6946C92.3135 28.5309 92.2625 28.3504 92.2374 28.1679C92.2241 28.0718 92.2326 27.975 92.2226 27.8797C92.21 27.7584 92.1289 27.6404 92.0823 27.523C91.9915 27.2945 91.9352 27.0584 91.9328 26.812C91.9315 26.6833 91.9478 26.5579 91.9601 26.4302C91.9711 26.3153 91.9392 26.2082 91.9211 26.0948C92.1266 26.1286 92.3769 26.0732 92.5705 26.0136C92.7605 25.9552 92.9385 25.8012 93.0726 25.6605C93.3839 25.3339 93.5741 24.9058 93.7042 24.4797C93.9898 23.5445 93.8727 22.4224 92.9321 21.9092C92.4939 21.6701 91.1811 21.6709 90.6591 21.789C90.1104 21.9133 89.4882 23.1242 89.4576 23.238C89.4387 23.3084 89.4482 23.3956 89.3835 23.4426C89.2413 23.5458 89.0067 23.3667 88.9018 23.2783C88.7208 23.1257 88.5917 22.9227 88.4799 22.717C88.2362 22.2688 88.0398 21.7881 87.901 21.2974C87.7941 20.9191 87.7257 20.529 87.5859 20.1603C87.4467 19.7934 87.2274 19.4656 86.8864 19.2577C86.5154 19.0317 86.0902 18.9126 85.683 18.7705C85.2793 18.6297 84.8826 18.4577 84.5697 18.1589C84.5009 18.0932 84.4341 18.0234 84.3787 17.9461C84.335 17.885 84.2918 17.7681 84.2252 17.7294C84.1216 17.6692 83.9705 17.8258 83.881 17.8826C83.4392 18.1632 83.0706 18.5545 82.7733 18.982C82.4777 19.4072 82.2352 19.8163 82.038 20.291C81.8918 20.6431 81.8006 21.0941 81.5434 21.3826C81.4286 21.5115 80.5753 21.5894 80.2989 21.4769C80.0225 21.3644 79.7127 21.0724 79.6199 20.8893C79.525 20.702 79.5023 20.4962 79.5429 20.291C79.5667 20.1704 79.6155 20.0577 79.6421 19.9391C79.6646 19.8396 79.685 19.7455 79.7334 19.6543C79.8253 19.4814 79.9822 19.3572 80.1714 19.3053C79.9745 19.1237 79.8113 18.9065 79.6984 18.6637C79.5811 18.4115 79.4817 18.1047 79.4534 17.8279C79.4305 17.603 79.4659 17.3701 79.589 17.1768C79.7181 16.9741 79.9469 16.8419 80.1448 16.7154C79.8425 16.4789 79.5837 16.1912 79.371 15.8727C78.9573 15.2533 78.7014 14.4725 78.9115 13.7341Z" fill="#191847"/>
<path fill-rule="evenodd" clip-rule="evenodd" d="M117.647 81.9332H79.171C76.2145 81.9332 73.8178 84.3299 73.8178 87.2864V118.067C73.8178 121.023 76.2145 123.42 79.171 123.42H117.647C120.603 123.42 123 121.023 123 118.067V87.2864C123 84.3299 120.603 81.9332 117.647 81.9332ZM112.294 91.3012C113.033 91.3012 113.632 91.9004 113.632 92.6395V112.714C113.632 113.453 113.033 114.052 112.294 114.052H84.5242C83.785 114.052 83.1859 113.453 83.1859 112.714V92.6395C83.1859 91.9004 83.785 91.3012 84.5242 91.3012H112.294Z" fill="#C5CFD6"/>
<path fill-rule="evenodd" clip-rule="evenodd" d="M49.8928 122.303C54.1797 112.815 57.2798 104.553 58.5242 100.194C60.6549 92.7307 62.2759 86.1633 62.6855 83.7107C63.6625 77.8622 55.1704 77.5216 54.0479 80.4283C52.349 84.8275 49.3831 99.2817 45.8193 121.114L49.8928 122.303ZM99.6173 92.527C95.6842 90.9723 81.9105 86.107 75.2675 84.7307C73.3586 84.3352 71.5084 83.9677 69.7688 83.6356C64.5984 82.6485 61.9196 91.9762 66.8994 92.6929C79.301 94.4778 96.8824 96.3209 98.3869 96.5278C100.496 96.8177 102.089 93.504 99.6173 92.527Z" fill="#B28B67"/>
<path fill-rule="evenodd" clip-rule="evenodd" d="M66.5954 81.0688L87.8699 70.2388V67.8812H85.3398C64.7576 73.1258 54.2402 76.4869 53.7874 77.9645C53.7826 77.9804 53.7781 77.9963 53.774 78.0122C53.7637 78.0258 53.7535 78.0395 53.7435 78.0532C49.6645 83.663 47.2217 111.05 46.4199 113.101L54.2361 114.267C57.226 103.18 66.7918 95.456 66.5377 82.1771C66.6063 81.7876 66.6237 81.4182 66.5954 81.0688Z" fill="#1F28CF"/>
<path fill-rule="evenodd" clip-rule="evenodd" d="M86.1023 87.5007C88.0489 87.111 89.8414 86.7632 91.3753 86.4942C101.283 84.7564 104.172 79.4528 102.464 67.8812H84.2091C81.2271 68.7378 65.7299 75.2367 57.6892 78.6933C52.3675 80.9811 54.0451 89.2284 57.0588 91.3747C57.0752 91.5063 57.1294 91.5958 57.226 91.6358C73.4375 98.3549 86.2623 94.8294 90.5465 95.9559L92.5281 89.7048L86.1023 87.5007Z" fill="#2B44FF"/>
<path fill-rule="evenodd" clip-rule="evenodd" d="M98.2725 91.5334C99.3347 91.6349 100.089 91.7945 100.535 92.0119C101.077 92.2764 101.824 92.7527 102.776 93.4408C102.469 94.0699 99.712 99.7234 94.504 110.401C92.8319 110.132 92.1694 109.493 92.5164 108.487C92.8633 107.481 93.1432 106.641 93.3559 105.967L93.6864 96.3699C93.6928 96.1853 93.8476 96.0407 94.0323 96.0471C94.0355 96.0472 94.0386 96.0473 94.0418 96.0475L95.5181 96.1403C96.357 95.4613 96.9105 94.847 97.1786 94.2974C97.3964 93.8508 97.5168 93.1462 97.5399 92.1834L97.5399 92.1834C97.5487 91.814 97.8554 91.5217 98.2248 91.5305C98.2408 91.5309 98.2567 91.5318 98.2725 91.5334Z" fill="#E4E4E4"/>
<path fill-rule="evenodd" clip-rule="evenodd" d="M51.8437 120.544C52.218 121.543 52.4052 122.29 52.4052 122.786C52.4052 123.39 52.3046 124.27 52.1036 125.428C51.4037 125.428 45.1136 125.428 33.2331 125.428C32.7427 123.806 33.0258 122.931 34.0823 122.802C35.1389 122.673 36.0165 122.556 36.7154 122.452L45.4862 118.542C45.655 118.467 45.8528 118.542 45.928 118.711C45.9293 118.714 45.9305 118.717 45.9317 118.72L46.4955 120.087C47.4736 120.544 48.2684 120.772 48.8799 120.772C49.3767 120.772 50.0628 120.571 50.9382 120.17L50.9382 120.17C51.2742 120.016 51.6713 120.163 51.8254 120.499C51.832 120.514 51.8381 120.529 51.8437 120.544Z" fill="#E4E4E4"/>
<path fill-rule="evenodd" clip-rule="evenodd" d="M68.4498 62.569L58.972 71.8149C56.2144 72.9912 53.9548 74.29 52.1935 75.7115C51.7974 76.1893 51.3661 77.1048 53.2298 76.6951C55.0935 76.2854 57.0722 75.9383 57.4224 76.5444C57.7727 77.1505 56.7406 78.0792 57.3879 78.8724C57.8195 79.4012 59.2709 77.7192 61.7421 73.8264L71.5977 68.0158L68.4498 62.569ZM110.518 63.8729L103.526 63.9004C107.843 77.8366 110.174 85.231 110.518 86.0838C111.292 88.0024 109.654 90.9244 108.953 92.4947C111.235 93.5157 110.992 89.7344 113.87 91.0735C116.497 92.2958 118.496 94.5106 121.531 92.6376C121.905 92.4074 122.314 91.5403 121.326 90.8628C118.864 89.1749 115.316 86.2206 114.837 85.2482C114.183 83.9222 112.744 76.7971 110.518 63.8729Z" fill="#B28B67"/>
<path fill-rule="evenodd" clip-rule="evenodd" d="M90.6484 34.535L87.7553 34.0388C82.7744 46.4816 74.0781 57.7875 61.6666 67.9564L71.0454 79.3508C83.4555 64.8715 91.105 49.933 90.6484 34.535Z" fill="#191847"/>
<path fill-rule="evenodd" clip-rule="evenodd" d="M103.26 70.8923H77.4981C83.4665 56.3803 86.4508 44.0525 86.4508 33.9089L94.2219 32.751C100.329 42.5736 102.054 54.6671 103.26 70.8923Z" fill="#DDE3E9"/>
<path fill-rule="evenodd" clip-rule="evenodd" d="M94.3865 32.7565C94.3855 32.7547 94.3845 32.7529 94.3834 32.751H93.8762C93.2692 32.7719 92.3447 32.8096 91.1026 32.864L89.2248 38.2303C89.0262 44.773 87.8662 57.9584 85.7449 77.7865H102.632C102.588 79.1559 102.515 80.5382 102.414 81.9332H114.97C113.092 60.7427 106.233 44.3486 94.3927 32.751L94.3865 32.7565V32.7565Z" fill="#2F3676"/>
<path fill-rule="evenodd" clip-rule="evenodd" d="M101.517 60.264C101.036 68.8005 99.833 74.6853 97.9069 77.9183H102.628C102.835 71.7765 102.464 65.8918 101.517 60.264V60.264Z" fill="black" fill-opacity="0.1"/>
<path fill-rule="evenodd" clip-rule="evenodd" d="M98.8737 67.5466L90.5464 63.6753V67.5466H98.8737Z" fill="white" fill-opacity="0.2"/>
<path fill-rule="evenodd" clip-rule="evenodd" d="M92.4661 27.2273C94.0078 25.4177 95.0513 23.2 94.8769 20.7149C94.3745 13.5549 84.4075 15.13 82.4688 18.7438C80.53 22.3576 80.7604 31.5242 83.2661 32.17C84.2653 32.4276 86.3941 31.7967 88.5606 30.4908L87.2007 40.1116H95.2305L92.4661 27.2273Z" fill="#B28B67"/>
<path fill-rule="evenodd" clip-rule="evenodd" d="M78.9115 13.7341C79.0778 13.1496 79.525 12.6492 80.1278 12.5007C80.2739 12.4647 80.4249 12.4502 80.5753 12.4562C80.6292 12.4584 80.6444 12.4739 80.6696 12.4362C80.6883 12.4082 80.6887 12.3399 80.6964 12.307C80.7204 12.2048 80.7503 12.1039 80.7873 12.0055C80.9134 11.6702 81.1253 11.3734 81.3808 11.1234C81.8587 10.6556 82.5044 10.3328 83.1753 10.2744C83.5424 10.2425 83.9069 10.3021 84.254 10.4216C84.4337 10.4834 84.608 10.5604 84.7777 10.6455C84.8288 10.6711 84.9946 10.7966 85.0459 10.7885C85.1025 10.7795 85.2164 10.6388 85.2624 10.6034C85.8317 10.1667 86.5346 9.99498 87.2436 10.0001C88.0439 10.0061 88.8146 10.0461 89.482 10.534C89.6233 10.6373 89.7579 10.7504 89.886 10.8694C89.9535 10.9321 90.0188 10.9972 90.0812 11.0649C90.1188 11.1058 90.1554 11.1476 90.1906 11.1905C90.2504 11.2633 90.2408 11.2872 90.3246 11.2364C90.6458 11.0413 91.018 10.95 91.3929 10.9961C91.6156 11.0234 91.8322 11.0903 92.0379 11.1783C92.1079 11.2082 92.27 11.3277 92.3446 11.3288C92.4187 11.33 92.5785 11.2192 92.6547 11.1911C93.0667 11.039 93.5107 11.0015 93.9437 11.0718C94.3903 11.1443 94.829 11.3225 95.2074 11.5687C95.3895 11.6872 95.5483 11.8184 95.6758 11.9946C95.7309 12.0706 95.7807 12.151 95.8431 12.2216C95.8796 12.2628 95.952 12.3052 95.9716 12.3575C95.9599 12.3262 96.46 12.1333 96.5072 12.121C96.7587 12.0553 97.0148 12.0687 97.261 12.1497C97.724 12.3021 98.1222 12.6438 98.4495 12.9941C98.6176 13.1741 98.7646 13.373 98.8895 13.5849C98.9493 13.6864 99.0041 13.7908 99.0541 13.8974C99.0784 13.9491 99.0945 14.0137 99.1264 14.0603C99.1676 14.1202 99.1953 14.1214 99.2699 14.1475C99.6489 14.2803 99.9943 14.505 100.257 14.8086C100.523 15.1158 100.696 15.4941 100.768 15.8925C100.773 15.9159 100.775 16.0132 100.789 16.0259C100.808 16.0434 100.884 16.0356 100.913 16.039C101.013 16.0507 101.112 16.0682 101.21 16.0913C101.39 16.134 101.565 16.1968 101.731 16.2789C102.378 16.5991 102.841 17.1993 103.068 17.8746C103.305 18.5834 103.301 19.3954 103.017 20.091C102.971 20.2033 102.917 20.3124 102.852 20.4155C102.813 20.4789 102.8 20.479 102.826 20.5455C102.854 20.6194 102.907 20.6912 102.94 20.7634C103.051 20.9991 103.128 21.2491 103.177 21.5044C103.257 21.9232 103.296 22.3633 103.217 22.7853C103.181 22.9813 103.117 23.1728 103.02 23.3473C102.97 23.4363 102.912 23.5207 102.846 23.5988C102.812 23.6393 102.776 23.678 102.738 23.7151C102.717 23.7363 102.688 23.7549 102.67 23.7785C102.625 23.8362 102.615 23.7888 102.639 23.8735C102.671 23.992 102.744 24.1088 102.789 24.2241C102.836 24.3429 102.877 24.4633 102.916 24.5849C102.993 24.8311 103.059 25.0818 103.1 25.3368C103.179 25.8263 103.165 26.348 102.933 26.7973C102.834 26.9895 102.692 27.158 102.52 27.2892C102.436 27.3534 102.344 27.4087 102.248 27.4541C102.199 27.4774 102.136 27.4875 102.114 27.5351C102.09 27.5863 102.126 27.6879 102.134 27.7452C102.205 28.2431 102.241 28.7659 102.093 29.2539C101.956 29.7033 101.656 30.1001 101.266 30.3628C100.51 30.8725 99.4914 30.8437 98.697 30.4357C98.49 30.3294 98.2963 30.1973 98.1235 30.0416C97.6834 30.6339 96.7779 30.6152 96.1348 30.4464C95.3335 30.2361 94.6906 29.679 94.3202 28.947C93.8137 29.5636 92.7507 29.3635 92.3994 28.6946C92.3135 28.5309 92.2625 28.3504 92.2374 28.1679C92.2241 28.0718 92.2326 27.975 92.2226 27.8797C92.21 27.7584 92.1289 27.6404 92.0823 27.523C91.9915 27.2945 91.9352 27.0584 91.9328 26.812C91.9315 26.6833 91.9478 26.5579 91.9601 26.4302C91.9711 26.3153 91.9392 26.2082 91.9211 26.0948C92.1266 26.1286 92.3769 26.0732 92.5705 26.0136C92.7605 25.9552 92.9385 25.8012 93.0726 25.6605C93.3839 25.3339 93.5741 24.9058 93.7042 24.4797C93.9898 23.5445 93.8727 22.4224 92.9321 21.9092C92.4939 21.6701 91.1811 21.6709 90.6591 21.789C90.1104 21.9133 89.4882 23.1242 89.4576 23.238C89.4387 23.3084 89.4482 23.3956 89.3835 23.4426C89.2413 23.5458 89.0067 23.3667 88.9018 23.2783C88.7208 23.1257 88.5917 22.9227 88.4799 22.717C88.2362 22.2688 88.0398 21.7881 87.901 21.2974C87.7941 20.9191 87.7257 20.529 87.5859 20.1603C87.4467 19.7934 87.2274 19.4656 86.8864 19.2577C86.5154 19.0317 86.0902 18.9126 85.683 18.7705C85.2793 18.6297 84.8826 18.4577 84.5697 18.1589C84.5009 18.0932 84.4341 18.0234 84.3787 17.9461C84.335 17.885 84.2918 17.7681 84.2252 17.7294C84.1216 17.6692 83.9705 17.8258 83.881 17.8826C83.4392 18.1632 83.0706 18.5545 82.7733 18.982C82.4777 19.4072 82.2352 19.8163 82.038 20.291C81.8918 20.6431 81.8006 21.0941 81.5434 21.3826C81.4286 21.5115 80.5753 21.5894 80.2989 21.4769C80.0225 21.3644 79.7127 21.0724 79.6199 20.8893C79.525 20.702 79.5023 20.4962 79.5429 20.291C79.5667 20.1704 79.6155 20.0577 79.6421 19.9391C79.6646 19.8396 79.685 19.7455 79.7334 19.6543C79.8253 19.4814 79.9822 19.3572 80.1714 19.3053C79.9745 19.1237 79.8113 18.9065 79.6984 18.6637C79.5811 18.4115 79.4817 18.1047 79.4534 17.8279C79.4305 17.603 79.4659 17.3701 79.589 17.1768C79.7181 16.9741 79.9469 16.8419 80.1448 16.7154C79.8425 16.4789 79.5837 16.1912 79.371 15.8727C78.9573 15.2533 78.7014 14.4725 78.9115 13.7341Z" fill="#191847"/>
<path fill-rule="evenodd" clip-rule="evenodd" d="M117.647 81.9332H79.171C76.2145 81.9332 73.8178 84.3299 73.8178 87.2864V118.067C73.8178 121.023 76.2145 123.42 79.171 123.42H117.647C120.603 123.42 123 121.023 123 118.067V87.2864C123 84.3299 120.603 81.9332 117.647 81.9332ZM112.294 91.3012C113.033 91.3012 113.632 91.9004 113.632 92.6395V112.714C113.632 113.453 113.033 114.052 112.294 114.052H84.5242C83.785 114.052 83.1859 113.453 83.1859 112.714V92.6395C83.1859 91.9004 83.785 91.3012 84.5242 91.3012H112.294Z" fill="#C5CFD6"/>
<path fill-rule="evenodd" clip-rule="evenodd" d="M49.8928 122.303C54.1797 112.815 57.2798 104.553 58.5242 100.194C60.6549 92.7307 62.2759 86.1633 62.6855 83.7107C63.6625 77.8622 55.1704 77.5216 54.0479 80.4283C52.349 84.8275 49.3831 99.2817 45.8193 121.114L49.8928 122.303ZM99.6173 92.527C95.6842 90.9723 81.9105 86.107 75.2675 84.7307C73.3586 84.3352 71.5084 83.9677 69.7688 83.6356C64.5984 82.6485 61.9196 91.9762 66.8994 92.6929C79.301 94.4778 96.8824 96.3209 98.3869 96.5278C100.496 96.8177 102.089 93.504 99.6173 92.527Z" fill="#B28B67"/>
<path fill-rule="evenodd" clip-rule="evenodd" d="M66.5954 81.0688L87.8699 70.2388V67.8812H85.3398C64.7576 73.1258 54.2402 76.4869 53.7874 77.9645C53.7826 77.9804 53.7781 77.9963 53.774 78.0122C53.7637 78.0258 53.7535 78.0395 53.7435 78.0532C49.6645 83.663 47.2217 111.05 46.4199 113.101L54.2361 114.267C57.226 103.18 66.7918 95.456 66.5377 82.1771C66.6063 81.7876 66.6237 81.4182 66.5954 81.0688Z" fill="#1F28CF"/>
<path fill-rule="evenodd" clip-rule="evenodd" d="M86.1023 87.5007C88.0489 87.111 89.8414 86.7632 91.3753 86.4942C101.283 84.7564 104.172 79.4528 102.464 67.8812H84.2091C81.2271 68.7378 65.7299 75.2367 57.6892 78.6933C52.3675 80.9811 54.0451 89.2284 57.0588 91.3747C57.0752 91.5063 57.1294 91.5958 57.226 91.6358C73.4375 98.3549 86.2623 94.8294 90.5465 95.9559L92.5281 89.7048L86.1023 87.5007Z" fill="#2B44FF"/>
<path fill-rule="evenodd" clip-rule="evenodd" d="M98.2725 91.5334C99.3347 91.6349 100.089 91.7945 100.535 92.0119C101.077 92.2764 101.824 92.7527 102.776 93.4408C102.469 94.0699 99.712 99.7234 94.504 110.401C92.8319 110.132 92.1694 109.493 92.5164 108.487C92.8633 107.481 93.1432 106.641 93.3559 105.967L93.6864 96.3699C93.6928 96.1853 93.8476 96.0407 94.0323 96.0471C94.0355 96.0472 94.0386 96.0473 94.0418 96.0475L95.5181 96.1403C96.357 95.4613 96.9105 94.847 97.1786 94.2974C97.3964 93.8508 97.5168 93.1462 97.5399 92.1834L97.5399 92.1834C97.5487 91.814 97.8554 91.5217 98.2248 91.5305C98.2408 91.5309 98.2567 91.5318 98.2725 91.5334Z" fill="#E4E4E4"/>
<path fill-rule="evenodd" clip-rule="evenodd" d="M51.8437 120.544C52.218 121.543 52.4052 122.29 52.4052 122.786C52.4052 123.39 52.3046 124.27 52.1036 125.428C51.4037 125.428 45.1136 125.428 33.2331 125.428C32.7427 123.806 33.0258 122.931 34.0823 122.802C35.1389 122.673 36.0165 122.556 36.7154 122.452L45.4862 118.542C45.655 118.467 45.8528 118.542 45.928 118.711C45.9293 118.714 45.9305 118.717 45.9317 118.72L46.4955 120.087C47.4736 120.544 48.2684 120.772 48.8799 120.772C49.3767 120.772 50.0628 120.571 50.9382 120.17L50.9382 120.17C51.2742 120.016 51.6713 120.163 51.8254 120.499C51.832 120.514 51.8381 120.529 51.8437 120.544Z" fill="#E4E4E4"/>
<path fill-rule="evenodd" clip-rule="evenodd" d="M68.4498 62.569L58.972 71.8149C56.2144 72.9912 53.9548 74.29 52.1935 75.7115C51.7974 76.1893 51.3661 77.1048 53.2298 76.6951C55.0935 76.2854 57.0722 75.9383 57.4224 76.5444C57.7727 77.1505 56.7406 78.0792 57.3879 78.8724C57.8195 79.4012 59.2709 77.7192 61.7421 73.8264L71.5977 68.0158L68.4498 62.569ZM110.518 63.8729L103.526 63.9004C107.843 77.8366 110.174 85.231 110.518 86.0838C111.292 88.0024 109.654 90.9244 108.953 92.4947C111.235 93.5157 110.992 89.7344 113.87 91.0735C116.497 92.2958 118.496 94.5106 121.531 92.6376C121.905 92.4074 122.314 91.5403 121.326 90.8628C118.864 89.1749 115.316 86.2206 114.837 85.2482C114.183 83.9222 112.744 76.7971 110.518 63.8729Z" fill="#B28B67"/>
<path fill-rule="evenodd" clip-rule="evenodd" d="M90.6484 34.535L87.7553 34.0388C82.7744 46.4816 74.0781 57.7875 61.6666 67.9564L71.0454 79.3508C83.4555 64.8715 91.105 49.933 90.6484 34.535Z" fill="#191847"/>
<path fill-rule="evenodd" clip-rule="evenodd" d="M103.26 70.8923H77.4981C83.4665 56.3803 86.4508 44.0525 86.4508 33.9089L94.2219 32.751C100.329 42.5736 102.054 54.6671 103.26 70.8923Z" fill="#DDE3E9"/>
<path fill-rule="evenodd" clip-rule="evenodd" d="M94.3865 32.7565C94.3855 32.7547 94.3845 32.7529 94.3834 32.751H93.8762C93.2692 32.7719 92.3447 32.8096 91.1026 32.864L89.2248 38.2303C89.0262 44.773 87.8662 57.9584 85.7449 77.7865H102.632C102.588 79.1559 102.515 80.5382 102.414 81.9332H114.97C113.092 60.7427 106.233 44.3486 94.3927 32.751L94.3865 32.7565V32.7565Z" fill="#2F3676"/>
<path fill-rule="evenodd" clip-rule="evenodd" d="M101.517 60.264C101.036 68.8005 99.833 74.6853 97.9069 77.9183H102.628C102.835 71.7765 102.464 65.8918 101.517 60.264V60.264Z" fill="black" fill-opacity="0.1"/>
<path fill-rule="evenodd" clip-rule="evenodd" d="M98.8737 67.5466L90.5464 63.6753V67.5466H98.8737Z" fill="white" fill-opacity="0.2"/>
</svg>
