<svg width="90" height="116" viewBox="0 0 90 116" fill="none" xmlns="http://www.w3.org/2000/svg">
<path fill-rule="evenodd" clip-rule="evenodd" d="M59.4661 17.2273C61.0078 15.4177 62.0513 13.2 61.8769 10.7149C61.3745 3.55493 51.4075 5.13004 49.4688 8.7438C47.53 12.3576 47.7604 21.5242 50.2661 22.17C51.2653 22.4276 53.3941 21.7967 55.5606 20.4908L54.2007 30.1116H62.2305L59.4661 17.2273Z" fill="#B28B67"/>
<path fill-rule="evenodd" clip-rule="evenodd" d="M45.9115 3.73409C46.0778 3.14961 46.525 2.64917 47.1278 2.50071C47.2739 2.4647 47.4249 2.45015 47.5753 2.45622C47.6292 2.45837 47.6444 2.47393 47.6696 2.4362C47.6883 2.40823 47.6887 2.3399 47.6964 2.30703C47.7204 2.20481 47.7503 2.10387 47.7873 2.00555C47.9134 1.67019 48.1253 1.37339 48.3808 1.12337C48.8587 0.655631 49.5044 0.332818 50.1753 0.274417C50.5424 0.24247 50.9069 0.302124 51.254 0.421563C51.4337 0.483393 51.608 0.560383 51.7777 0.645502C51.8288 0.671122 51.9946 0.796604 52.0459 0.788474C52.1025 0.77951 52.2164 0.638757 52.2624 0.603426C52.8317 0.166688 53.5346 -0.00502317 54.2436 0.000111546C55.0439 0.0061386 55.8146 0.0461277 56.482 0.533994C56.6233 0.637285 56.7579 0.750375 56.886 0.869441C56.9535 0.932127 57.0188 0.997164 57.0812 1.0649C57.1188 1.10577 57.1554 1.14756 57.1906 1.19047C57.2504 1.26331 57.2408 1.28724 57.3246 1.23642C57.6458 1.04126 58.018 0.949991 58.3929 0.996066C58.6156 1.02344 58.8322 1.09028 59.0379 1.17826C59.1079 1.20821 59.27 1.32767 59.3446 1.32883C59.4187 1.32997 59.5785 1.21924 59.6547 1.19109C60.0667 1.03902 60.5107 1.00154 60.9437 1.0718C61.3903 1.14431 61.829 1.3225 62.2074 1.56874C62.3895 1.6872 62.5483 1.81843 62.6758 1.99456C62.7309 2.07061 62.7807 2.15105 62.8431 2.22156C62.8796 2.26284 62.952 2.3052 62.9716 2.35745C62.9599 2.32616 63.46 2.13334 63.5072 2.12101C63.7587 2.05534 64.0148 2.06865 64.261 2.14968C64.724 2.30206 65.1222 2.64377 65.4495 2.99411C65.6176 3.17406 65.7646 3.37298 65.8895 3.5849C65.9493 3.68641 66.0041 3.79082 66.0541 3.89745C66.0784 3.9491 66.0945 4.01372 66.1264 4.06026C66.1676 4.12022 66.1953 4.12137 66.2699 4.14751C66.6489 4.28027 66.9943 4.50497 67.2574 4.80861C67.5234 5.1158 67.6961 5.49409 67.7685 5.89246C67.7727 5.91593 67.7753 6.01318 67.789 6.02588C67.8079 6.04337 67.8841 6.03563 67.9129 6.03902C68.0127 6.05073 68.1118 6.06815 68.2096 6.09131C68.3899 6.13398 68.5654 6.19678 68.7314 6.27891C69.3785 6.59906 69.8412 7.19927 70.0677 7.87465C70.3053 8.58342 70.3011 9.39544 70.0171 10.091C69.9712 10.2033 69.9166 10.3124 69.8525 10.4155C69.8131 10.4789 69.8004 10.479 69.826 10.5455C69.8545 10.6194 69.9065 10.6912 69.9403 10.7634C70.0507 10.9991 70.1279 11.2491 70.1767 11.5044C70.2566 11.9232 70.2963 12.3633 70.2174 12.7853C70.1807 12.9813 70.1169 13.1728 70.0195 13.3473C69.9699 13.4363 69.9118 13.5207 69.8462 13.5988C69.8121 13.6393 69.776 13.678 69.7381 13.7151C69.7165 13.7363 69.6881 13.7549 69.6697 13.7785C69.6248 13.8362 69.6154 13.7888 69.6386 13.8735C69.6709 13.992 69.7443 14.1088 69.7893 14.2241C69.8356 14.3429 69.8775 14.4633 69.9158 14.5849C69.9933 14.8311 70.0589 15.0818 70.0999 15.3368C70.1786 15.8263 70.1648 16.348 69.9332 16.7973C69.8342 16.9895 69.6922 17.158 69.5199 17.2892C69.4356 17.3534 69.3442 17.4087 69.2484 17.4541C69.1992 17.4775 69.1363 17.4875 69.1139 17.5351C69.0897 17.5863 69.1256 17.6879 69.1338 17.7452C69.205 18.2431 69.2407 18.7659 69.0927 19.2539C68.9563 19.7033 68.6562 20.1001 68.2665 20.3628C67.5105 20.8725 66.4914 20.8437 65.697 20.4357C65.49 20.3294 65.2963 20.1973 65.1235 20.0416C64.6834 20.6339 63.7779 20.6152 63.1348 20.4464C62.3335 20.2361 61.6906 19.679 61.3202 18.947C60.8137 19.5636 59.7507 19.3635 59.3994 18.6946C59.3135 18.5309 59.2625 18.3504 59.2374 18.1679C59.2241 18.0718 59.2326 17.975 59.2226 17.8797C59.21 17.7584 59.1289 17.6404 59.0823 17.523C58.9915 17.2945 58.9352 17.0584 58.9328 16.812C58.9315 16.6833 58.9478 16.5579 58.9601 16.4302C58.9711 16.3153 58.9392 16.2082 58.9211 16.0948C59.1266 16.1286 59.3769 16.0732 59.5705 16.0136C59.7605 15.9552 59.9385 15.8012 60.0726 15.6605C60.3839 15.3339 60.5741 14.9058 60.7042 14.4797C60.9898 13.5445 60.8727 12.4224 59.9321 11.9092C59.4939 11.6701 58.1811 11.6709 57.6591 11.789C57.1104 11.9133 56.4882 13.1242 56.4576 13.238C56.4387 13.3084 56.4482 13.3956 56.3835 13.4426C56.2413 13.5458 56.0067 13.3667 55.9018 13.2783C55.7208 13.1257 55.5917 12.9227 55.4799 12.717C55.2362 12.2688 55.0398 11.7881 54.901 11.2974C54.7941 10.9191 54.7257 10.529 54.5859 10.1603C54.4467 9.79344 54.2274 9.46555 53.8864 9.25774C53.5154 9.03167 53.0902 8.91261 52.683 8.77053C52.2793 8.62974 51.8826 8.45765 51.5697 8.1589C51.5009 8.0932 51.4341 8.0234 51.3787 7.94606C51.335 7.885 51.2918 7.7681 51.2252 7.72939C51.1216 7.66916 50.9705 7.82578 50.881 7.88265C50.4392 8.16323 50.0706 8.55455 49.7733 8.98204C49.4777 9.4072 49.2352 9.81629 49.038 10.291C48.8918 10.6431 48.8006 11.0941 48.5434 11.3826C48.4286 11.5115 47.5753 11.5894 47.2989 11.4769C47.0225 11.3644 46.7127 11.0724 46.6199 10.8893C46.525 10.702 46.5023 10.4962 46.5429 10.291C46.5667 10.1704 46.6155 10.0577 46.6421 9.93914C46.6646 9.83958 46.685 9.74548 46.7334 9.65427C46.8253 9.48144 46.9822 9.35721 47.1714 9.30527C46.9745 9.12371 46.8113 8.90652 46.6984 8.66373C46.5811 8.41149 46.4817 8.10474 46.4534 7.82789C46.4305 7.60303 46.4659 7.37006 46.589 7.17682C46.7181 6.9741 46.9469 6.84185 47.1448 6.7154C46.8425 6.47885 46.5837 6.19117 46.371 5.87267C45.9573 5.25328 45.7014 4.47252 45.9115 3.73409Z" fill="#191847"/>
<path fill-rule="evenodd" clip-rule="evenodd" d="M84.6468 71.9332H46.171C43.2145 71.9332 40.8178 74.3299 40.8178 77.2864V108.067C40.8178 111.024 43.2145 113.42 46.171 113.42H84.6468C87.6033 113.42 90 111.024 90 108.067V77.2864C90 74.3299 87.6033 71.9332 84.6468 71.9332ZM79.2937 81.3013C80.0328 81.3013 80.632 81.9004 80.632 82.6395V102.714C80.632 103.453 80.0328 104.052 79.2937 104.052H51.5242C50.785 104.052 50.1859 103.453 50.1859 102.714V82.6395C50.1859 81.9004 50.785 81.3013 51.5242 81.3013H79.2937Z" fill="#C5CFD6"/>
<path fill-rule="evenodd" clip-rule="evenodd" d="M16.8928 112.303C21.1797 102.815 24.2798 94.5531 25.5242 90.1942C27.6549 82.7307 29.2759 76.1633 29.6855 73.7107C30.6625 67.8622 22.1704 67.5216 21.0479 70.4282C19.349 74.8275 16.3831 89.2816 12.8193 111.114L16.8928 112.303ZM66.6173 82.5269C62.6842 80.9723 48.9105 76.1069 42.2675 74.7306C40.3586 74.3351 38.5084 73.9677 36.7688 73.6356C31.5984 72.6485 28.9196 81.9762 33.8994 82.6929C46.301 84.4778 63.8824 86.3209 65.3869 86.5278C67.4957 86.8177 69.0892 83.504 66.6173 82.5269Z" fill="#B28B67"/>
<path fill-rule="evenodd" clip-rule="evenodd" d="M33.5954 71.0688L54.8699 60.2388V57.8812H52.3398C31.7576 63.1258 21.2402 66.4869 20.7874 67.9645C20.7826 67.9804 20.7781 67.9963 20.774 68.0122C20.7637 68.0258 20.7535 68.0395 20.7435 68.0532C16.6645 73.663 14.2217 101.05 13.4199 103.101L21.2361 104.267C24.226 93.1797 33.7918 85.456 33.5377 72.1771C33.6063 71.7876 33.6237 71.4182 33.5954 71.0688Z" fill="#1F28CF"/>
<path fill-rule="evenodd" clip-rule="evenodd" d="M53.1023 77.5007C55.0489 77.111 56.8414 76.7632 58.3753 76.4942C68.2831 74.7564 71.1724 69.4528 69.4641 57.8812H51.2091C48.2271 58.7378 32.7299 65.2367 24.6892 68.6933C19.3675 70.9811 21.0451 79.2284 24.0588 81.3747C24.0752 81.5063 24.1294 81.5958 24.226 81.6358C40.4375 88.3549 53.2623 84.8294 57.5465 85.9559L59.5281 79.7048L53.1023 77.5007Z" fill="#2B44FF"/>
<path fill-rule="evenodd" clip-rule="evenodd" d="M65.2725 81.5333C66.3347 81.6349 67.0887 81.7944 67.5346 82.0119C68.0768 82.2764 68.8241 82.7527 69.7763 83.4408C69.4695 84.0698 66.712 89.7234 61.504 100.401C59.8319 100.132 59.1694 99.4934 59.5164 98.4872C59.8633 97.4809 60.1432 96.6409 60.3559 95.9671L60.6864 86.3699C60.6928 86.1852 60.8476 86.0407 61.0323 86.047C61.0355 86.0471 61.0386 86.0473 61.0418 86.0475L62.5181 86.1403C63.357 85.4612 63.9105 84.8469 64.1786 84.2973C64.3964 83.8508 64.5168 83.1461 64.5399 82.1834L64.5399 82.1834C64.5487 81.8139 64.8554 81.5216 65.2248 81.5305C65.2408 81.5309 65.2567 81.5318 65.2725 81.5333Z" fill="#E4E4E4"/>
<path fill-rule="evenodd" clip-rule="evenodd" d="M18.8437 110.544C19.218 111.543 19.4052 112.29 19.4052 112.786C19.4052 113.39 19.3046 114.27 19.1036 115.428C18.4037 115.428 12.1136 115.428 0.233125 115.428C-0.257252 113.806 0.025822 112.931 1.08235 112.802C2.13887 112.673 3.01655 112.556 3.71537 112.452L12.4862 108.542C12.655 108.467 12.8528 108.542 12.928 108.711C12.9293 108.714 12.9305 108.717 12.9317 108.72L13.4955 110.087C14.4736 110.544 15.2684 110.772 15.8799 110.772C16.3767 110.772 17.0628 110.571 17.9382 110.17L17.9382 110.17C18.2742 110.016 18.6713 110.163 18.8254 110.499C18.832 110.514 18.8381 110.529 18.8437 110.544Z" fill="#E4E4E4"/>
<path fill-rule="evenodd" clip-rule="evenodd" d="M35.4498 52.569L25.972 61.8149C23.2144 62.9912 20.9548 64.29 19.1935 65.7115C18.7974 66.1893 18.3661 67.1048 20.2298 66.6951C22.0934 66.2854 24.0722 65.9383 24.4224 66.5444C24.7727 67.1505 23.7406 68.0792 24.3879 68.8724C24.8195 69.4012 26.2709 67.7192 28.7421 63.8264L38.5977 58.0158L35.4498 52.569ZM77.5177 53.8729L70.526 53.9004C74.8431 67.8366 77.1737 75.231 77.5177 76.0838C78.2919 78.0024 76.6536 80.9244 75.9531 82.4947C78.2349 83.5157 77.9917 79.7344 80.8702 81.0735C83.4975 82.2958 85.496 84.5106 88.5315 82.6376C88.9047 82.4074 89.3136 81.5403 88.3256 80.8628C85.8638 79.1749 82.3164 76.2206 81.8371 75.2482C81.1834 73.9222 79.7437 66.7971 77.5177 53.8729Z" fill="#B28B67"/>
<path fill-rule="evenodd" clip-rule="evenodd" d="M57.6484 24.535L54.7553 24.0388C49.7744 36.4816 41.0781 47.7875 28.6666 57.9564L38.0454 69.3508C50.4555 54.8715 58.105 39.933 57.6484 24.535Z" fill="#191847"/>
<path fill-rule="evenodd" clip-rule="evenodd" d="M70.2601 60.8923H44.498C50.4665 46.3803 53.4508 34.0525 53.4508 23.9089L61.2219 22.751C67.3293 32.5736 69.0541 44.6671 70.2601 60.8923Z" fill="#DDE3E9"/>
<path fill-rule="evenodd" clip-rule="evenodd" d="M61.3865 22.7565C61.3855 22.7547 61.3845 22.7529 61.3834 22.751H60.8762C60.2692 22.7719 59.3447 22.8096 58.1026 22.864L56.2248 28.2303C56.0262 34.773 54.8662 47.9584 52.7449 67.7865H69.6325C69.5882 69.1559 69.5152 70.5382 69.4135 71.9332H81.9702C80.092 50.7427 73.2328 34.3486 61.3927 22.751L61.3865 22.7565V22.7565Z" fill="#2F3676"/>
<path fill-rule="evenodd" clip-rule="evenodd" d="M68.5169 50.264C68.0363 58.8005 66.833 64.6853 64.9069 67.9183H69.6281C69.8348 61.7765 69.4644 55.8918 68.5169 50.264V50.264Z" fill="black" fill-opacity="0.1"/>
<path fill-rule="evenodd" clip-rule="evenodd" d="M65.8737 57.5466L57.5465 53.6753V57.5466H65.8737Z" fill="white" fill-opacity="0.2"/>
</svg>
