<svg width="18" height="16" viewBox="0 0 18 16" fill="none" xmlns="http://www.w3.org/2000/svg">
<g id="Frame 118">
<path id="Vector" d="M11.2 5.81818C16 5.81818 16 8.72727 16 8.72727V10.1818H11.2V8.72727C11.2 8.72727 11.2 7.49818 10.28 6.4C10.144 6.23273 9.976 6.07273 9.8 5.92C10.216 5.86182 10.672 5.81818 11.2 5.81818ZM0 8.72727C0 8.72727 0 5.81818 4.8 5.81818C9.6 5.81818 9.6 8.72727 9.6 8.72727V10.1818H0V8.72727ZM5.6 11.6364V13.0909H10.4V11.6364L12.8 13.8182L10.4 16V14.5455H5.6V16L3.2 13.8182L5.6 11.6364ZM4.8 0C3.472 0 2.4 0.974545 2.4 2.18182C2.4 3.38909 3.472 4.36364 4.8 4.36364C6.128 4.36364 7.2 3.38909 7.2 2.18182C7.2 0.974545 6.128 0 4.8 0ZM11.2 0C9.872 0 8.8 0.974545 8.8 2.18182C8.8 3.38909 9.872 4.36364 11.2 4.36364C12.528 4.36364 13.6 3.38909 13.6 2.18182C13.6 0.974545 12.528 0 11.2 0Z" fill="white"/>
</g>
</svg>
