<svg width="24" height="24" viewBox="0 0 24 24" fill="none" xmlns="http://www.w3.org/2000/svg">
<rect width="24" height="24" rx="12" fill="#DBCA16"/>
<mask id="mask0_529_604" style="mask-type:alpha" maskUnits="userSpaceOnUse" x="0" y="0" width="24" height="24">
<rect width="24" height="24" rx="12" fill="#D9D9D9"/>
</mask>
<g mask="url(#mask0_529_604)">
<path d="M16.5 10.5C17.0523 10.5 17.5 10.0523 17.5 9.5C17.5 8.94772 17.0523 8.5 16.5 8.5C15.9477 8.5 15.5 8.94772 15.5 9.5C15.5 10.0523 15.9477 10.5 16.5 10.5Z" fill="#B39DDB"/>
<path d="M7.5 10.5C8.05228 10.5 8.5 10.0523 8.5 9.5C8.5 8.94772 8.05228 8.5 7.5 8.5C6.94772 8.5 6.5 8.94772 6.5 9.5C6.5 10.0523 6.94772 10.5 7.5 10.5Z" fill="#B39DDB"/>
<path d="M12 18.5L9.5 15.5V12.5H14.5V15.5L12 18.5Z" fill="#B39DDB"/>
<path d="M16.5 6.5C16.5 2.7 7.5 4 7.5 6.5V10C7.5 12.5 9.5 14.5 12 14.5C14.5 14.5 16.5 12.5 16.5 10V6.5Z" fill="#D1C4E9"/>
<path d="M14 10C14.2761 10 14.5 9.77614 14.5 9.5C14.5 9.22386 14.2761 9 14 9C13.7239 9 13.5 9.22386 13.5 9.5C13.5 9.77614 13.7239 10 14 10Z" fill="#00164F"/>
<path d="M10 10C10.2761 10 10.5 9.77614 10.5 9.5C10.5 9.22386 10.2761 9 10 9C9.72386 9 9.5 9.22386 9.5 9.5C9.5 9.77614 9.72386 10 10 10Z" fill="#00164F"/>
<path d="M12 2C8.95 2 7 4.45 7 7.5V8.65L8 9.5V7L14 5L16 7V9.5L17 8.65V7.5C17 5.5 16.5 3.5 14 3L13.5 2H12ZM14.5 15.5C14.5 15.5 13.5 16 12 16C10.5 16 9.5 15.5 9.5 15.5C9.5 15.5 4 16.5 4 22H20C20 16.5 14.5 15.5 14.5 15.5Z" fill="#00164F"/>
</g>
</svg>
